<svg xmlns="http://www.w3.org/2000/svg" xmlns:xlink="http://www.w3.org/1999/xlink" width="29.52" height="18.823" viewBox="0 0 29.52 18.823">
  <defs>
    <clipPath id="clip-path">
      <rect id="Rectangle_132" data-name="Rectangle 132" width="29.52" height="18.823" fill="#cc671b"/>
    </clipPath>
  </defs>
  <g id="Group_15498" data-name="Group 15498" transform="translate(0 0)">
    <g id="Group_15497" data-name="Group 15497" transform="translate(0 0)" clip-path="url(#clip-path)">
      <path id="Path_59049" data-name="Path 59049" d="M26.718.5,13.884,13.951c-.024,0-.048,0-.073,0a2.442,2.442,0,0,0-.469.046L2.6,5.878a1.626,1.626,0,0,0-1.955,2.6l10.737,8.113a2.436,2.436,0,0,0,4.864-.2c0-.065,0-.128-.009-.191L29.07,2.747A1.625,1.625,0,1,0,26.718.5" transform="translate(0 0)" fill="#cc671b"/>
    </g>
  </g>
</svg>
