<svg id="create_6581105" xmlns="http://www.w3.org/2000/svg" width="103.012" height="103.011" viewBox="0 0 103.012 103.011">
  <path id="Path_58949" data-name="Path 58949" d="M95.485,6.637H84.656a5.292,5.292,0,0,0-2.9-5.623L80.782.537a5.291,5.291,0,0,0-7.067,2.431L71.925,6.637H17.766a1.509,1.509,0,1,0,0,3.018H70.451l-1.277,2.616H7.527a1.92,1.92,0,0,0-1.894,1.94V64.6H3.018V14.165A4.515,4.515,0,0,1,7.527,9.655h4.4a1.509,1.509,0,0,0,0-3.018h-4.4A7.536,7.536,0,0,0,0,14.165V75.5a7.536,7.536,0,0,0,7.527,7.527H37.406v7.293a1.509,1.509,0,0,0,3.018,0V83.031H62.589V100H40.424V96.158a1.509,1.509,0,0,0-3.018,0V100H30.662a1.509,1.509,0,0,0,0,3.018H72.35a1.509,1.509,0,0,0,0-3.018H65.606V83.031H80.434a1.509,1.509,0,1,0,0-3.018H7.527A4.515,4.515,0,0,1,3.018,75.5V67.613H99.994V75.5a4.514,4.514,0,0,1-4.509,4.509H86.269a1.509,1.509,0,0,0,0,3.018h9.217a7.536,7.536,0,0,0,7.527-7.527V14.165a7.536,7.536,0,0,0-7.527-7.527ZM76.427,4.292A2.268,2.268,0,0,1,79.458,3.25l.978.477a2.266,2.266,0,0,1,1.043,3.03L72.575,25l-5.051-2.465ZM80.564,33.48h-.7a1.509,1.509,0,1,0,0,3.018h.7V47.391h-.7a1.509,1.509,0,1,0,0,3.018h.7v7.461a1.04,1.04,0,0,1-1.039,1.039H59.916a1.509,1.509,0,0,0-2.909,0h-11a1.509,1.509,0,0,0-2.909,0H23.488a1.04,1.04,0,0,1-1.039-1.039V50.409h2.184a1.509,1.509,0,1,0,0-3.018H22.448V36.5h2.184a1.509,1.509,0,1,0,0-3.018H22.448V26.02a1.04,1.04,0,0,1,1.039-1.039H43.1a1.509,1.509,0,0,0,2.909,0h11a1.509,1.509,0,0,0,2.909,0h4.17l.214,4.131a3.226,3.226,0,0,0,5.072,2.476l4.762-3.334a1.516,1.516,0,0,0,.491-.574l1.317-2.7h3.582a1.04,1.04,0,0,1,1.039,1.039V33.48ZM70.306,27.25l-2.664,1.865a.208.208,0,0,1-.328-.16l-.169-3.248ZM8.651,64.6V15.289H67.7l-3.257,6.673H23.488A4.062,4.062,0,0,0,19.43,26.02v31.85a4.062,4.062,0,0,0,4.057,4.057H79.525a4.062,4.062,0,0,0,4.057-4.057V26.02a4.062,4.062,0,0,0-4.057-4.057H77.416l3.257-6.673H94.361V64.6Zm88.727,0V14.211a1.92,1.92,0,0,0-1.894-1.94H82.146l1.277-2.616H95.485a4.514,4.514,0,0,1,4.509,4.509V64.6Z" transform="translate(0 -0.003)" fill="#fff"/>
  <path id="Path_58950" data-name="Path 58950" d="M245.165,359.362a1.509,1.509,0,1,0,0,3.018h1.949a1.509,1.509,0,1,0,0-3.018Z" transform="translate(-194.633 -287.06)" fill="#fff"/>
  <path id="Path_58951" data-name="Path 58951" d="M251.518,443.714v-3.455a1.509,1.509,0,1,0-3.018,0v3.455a1.509,1.509,0,1,0,3.018,0Z" transform="translate(-198.503 -350.476)" fill="#fff"/>
  <path id="Path_58952" data-name="Path 58952" d="M215.441,138.816a1.509,1.509,0,0,0,1.509-1.509v-1.329a1.509,1.509,0,0,0-3.018,0v1.329A1.509,1.509,0,0,0,215.441,138.816Z" transform="translate(-170.89 -107.415)" fill="#fff"/>
  <path id="Path_58953" data-name="Path 58953" d="M284.578,138.817a1.509,1.509,0,0,0,1.509-1.509v-1.329a1.509,1.509,0,0,0-3.018,0v1.329A1.509,1.509,0,0,0,284.578,138.817Z" transform="translate(-226.117 -107.416)" fill="#fff"/>
  <path id="Path_58954" data-name="Path 58954" d="M215.441,260.854a1.509,1.509,0,0,0-1.509,1.509v1.329a1.509,1.509,0,1,0,3.018,0v-1.329A1.509,1.509,0,0,0,215.441,260.854Z" transform="translate(-170.89 -208.372)" fill="#fff"/>
  <path id="Path_58955" data-name="Path 58955" d="M284.578,260.854a1.509,1.509,0,0,0-1.509,1.509v1.329a1.509,1.509,0,1,0,3.018,0v-1.329A1.509,1.509,0,0,0,284.578,260.854Z" transform="translate(-226.117 -208.372)" fill="#fff"/>
  <path id="Path_58956" data-name="Path 58956" d="M140.654,166.4h-2.213a1.509,1.509,0,1,0,0,3.018h2.213a1.509,1.509,0,1,0,0-3.018Z" transform="translate(-109.382 -132.918)" fill="#fff"/>
  <path id="Path_58957" data-name="Path 58957" d="M173.654,166.4h-2.213a1.509,1.509,0,1,0,0,3.018h2.213a1.509,1.509,0,1,0,0-3.018Z" transform="translate(-135.742 -132.918)" fill="#fff"/>
  <path id="Path_58958" data-name="Path 58958" d="M173.654,235.534h-2.213a1.509,1.509,0,0,0,0,3.018h2.213a1.509,1.509,0,1,0,0-3.018Z" transform="translate(-135.742 -188.146)" fill="#fff"/>
  <path id="Path_58959" data-name="Path 58959" d="M140.654,235.534h-2.213a1.509,1.509,0,0,0,0,3.018h2.213a1.509,1.509,0,1,0,0-3.018Z" transform="translate(-109.382 -188.146)" fill="#fff"/>
  <path id="Path_58960" data-name="Path 58960" d="M327.149,166.4h-2.213a1.509,1.509,0,0,0,0,3.018h2.213a1.509,1.509,0,1,0,0-3.018Z" transform="translate(-258.355 -132.918)" fill="#fff"/>
  <path id="Path_58961" data-name="Path 58961" d="M360.149,166.4h-2.213a1.509,1.509,0,1,0,0,3.018h2.213a1.509,1.509,0,1,0,0-3.018Z" transform="translate(-284.715 -132.918)" fill="#fff"/>
  <path id="Path_58962" data-name="Path 58962" d="M224.258,165.021a1.509,1.509,0,1,0,0-3.018h-2.239a1.509,1.509,0,0,0-2.909,0h-11a1.509,1.509,0,0,0-2.909,0h-.759a1.509,1.509,0,0,0,0,3.018h.7v10.892h-.7a1.509,1.509,0,0,0,0,3.018h.759a1.509,1.509,0,0,0,2.909,0h11a1.509,1.509,0,0,0,2.909,0h2.239a1.509,1.509,0,0,0,0-3.018h-2.184V165.021Zm-16.095,0h10.892v10.892H208.163Z" transform="translate(-162.103 -128.525)" fill="#fff"/>
  <path id="Path_58963" data-name="Path 58963" d="M360.149,235.534h-2.213a1.509,1.509,0,0,0,0,3.018h2.213a1.509,1.509,0,1,0,0-3.018Z" transform="translate(-284.715 -188.146)" fill="#fff"/>
  <path id="Path_58964" data-name="Path 58964" d="M327.149,235.534h-2.213a1.509,1.509,0,0,0,0,3.018h2.213a1.509,1.509,0,0,0,0-3.018Z" transform="translate(-258.355 -188.146)" fill="#fff"/>
</svg>
