<svg xmlns="http://www.w3.org/2000/svg" width="55.186" height="50.696" viewBox="0 0 55.186 50.696">
  <g id="Group_15494" data-name="Group 15494" transform="translate(0)">
    <path id="Path_767" data-name="Path 767" d="M822.774,673.293l10.22-10.071v31.408a1.846,1.846,0,0,0,3.679,0V663.223l10.22,10.071a1.957,1.957,0,0,0,2.6.084,1.6,1.6,0,0,0,.091-2.388l-13.4-13.209c-.007-.007-.015-.011-.022-.017a1.943,1.943,0,0,0-2.647,0c-.007.006-.015.011-.022.017l-13.4,13.209a1.6,1.6,0,0,0,.091,2.388A1.957,1.957,0,0,0,822.774,673.293Z" transform="translate(-807.241 -657.242)" fill="#cc681b"/>
    <path id="Path_768" data-name="Path 768" d="M710.594,1097.445a1.77,1.77,0,0,0-1.84,1.69v9.8a5.314,5.314,0,0,1-5.519,5.069h-36.79a5.314,5.314,0,0,1-5.519-5.069v-9.8a1.846,1.846,0,0,0-3.679,0v9.8c0,4.659,4.126,8.449,9.2,8.449h36.79c5.071,0,9.2-3.79,9.2-8.449v-9.8A1.769,1.769,0,0,0,710.594,1097.445Z" transform="translate(-657.248 -1066.685)" fill="#cc681b"/>
  </g>
</svg>
