<svg xmlns="http://www.w3.org/2000/svg" width="24" height="24" viewBox="0 0 24 24">
  <g id="Group_15478" data-name="Group 15478" transform="translate(-1588 -2869)">
    <circle id="Ellipse_55" data-name="Ellipse 55" cx="12" cy="12" r="12" transform="translate(1588 2869)" fill="#fff"/>
    <g id="pin_927667" transform="translate(1594.164 2873.786)">
      <g id="Group_15476" data-name="Group 15476" transform="translate(0)">
        <g id="Group_15475" data-name="Group 15475" transform="translate(0)">
          <path id="Path_58972" data-name="Path 58972" d="M53.916,0A5.843,5.843,0,0,0,48.08,5.836a6.733,6.733,0,0,0,.5,2.247,9.411,9.411,0,0,0,.675,1.262l4,6.063a.761.761,0,0,0,1.33,0l4-6.063a9.372,9.372,0,0,0,.675-1.262,6.732,6.732,0,0,0,.495-2.247A5.843,5.843,0,0,0,53.916,0Zm4.708,7.816a8.622,8.622,0,0,1-.615,1.15l-4,6.063c-.079.12-.1.12-.183,0l-4-6.063a8.629,8.629,0,0,1-.615-1.15,6.112,6.112,0,0,1-.441-1.98,5.149,5.149,0,0,1,10.3,0A6.117,6.117,0,0,1,58.624,7.816Z" transform="translate(-48.08)" fill="#cc681b"/>
          <path id="Path_58973" data-name="Path 58973" d="M115.17,64.008a3.09,3.09,0,1,0,3.09,3.09A3.093,3.093,0,0,0,115.17,64.008Zm0,5.493a2.4,2.4,0,1,1,2.4-2.4A2.406,2.406,0,0,1,115.17,69.5Z" transform="translate(-109.334 -61.261)" fill="#cc681b"/>
        </g>
      </g>
    </g>
  </g>
</svg>
