<svg xmlns="http://www.w3.org/2000/svg" width="19.306" height="25.942" viewBox="0 0 19.306 25.942">
  <path id="Path_11188" data-name="Path 11188" d="M1284.077-18.633a9.653,9.653,0,0,1,9.653,9.653c0,5.4-6.281,11.861-9.653,16.289-3.372-4.428-9.653-10.891-9.653-16.289a9.653,9.653,0,0,1,9.653-9.653Zm0,4.767a4.886,4.886,0,0,1,4.886,4.886,4.886,4.886,0,0,1-4.886,4.886,4.886,4.886,0,0,1-4.886-4.886,4.886,4.886,0,0,1,4.886-4.886Z" transform="translate(-1274.424 18.633)" fill="#cc671b" fill-rule="evenodd"/>
</svg>
