<svg id="machinery_8163700" xmlns="http://www.w3.org/2000/svg" width="103.029" height="103.011" viewBox="0 0 103.029 103.011">
  <path id="Path_58948" data-name="Path 58948" d="M99.156,48.327H20.106V41.076a3.843,3.843,0,0,0-1.025-2.616l-2.824-3.055V26.874h4.472a19.323,19.323,0,0,0,38.517,0H80.5a7.99,7.99,0,0,0,7.981-7.981V8.137A8.107,8.107,0,0,0,77.643.554L57.6,8.227A24.841,24.841,0,0,0,39.988.826a24.544,24.544,0,0,0-8.71,1.587,1.509,1.509,0,0,0,1.068,2.823,21.537,21.537,0,0,1,7.642-1.392,21.822,21.822,0,0,1,21.5,19.371.6.6,0,0,1-.616.641h-57a.849.849,0,0,1-.854-.841,7.69,7.69,0,0,1,7.706-7.655h9.249a1.508,1.508,0,0,0,1.3-.75A21.88,21.88,0,0,1,27.46,7.844a1.509,1.509,0,1,0-1.75-2.459,24.96,24.96,0,0,0-6.586,6.956h-8.4A10.712,10.712,0,0,0,0,23.015a3.871,3.871,0,0,0,3.873,3.86h1.8v8.531L2.851,38.46a3.843,3.843,0,0,0-1.025,2.616V99.044a4.025,4.025,0,0,0,4.03,4.011h2.78a4.04,4.04,0,0,0,3.988-3.43l5.6-31.072H67.9l5.6,31.072a4.04,4.04,0,0,0,3.988,3.43h2.78a4.025,4.025,0,0,0,4.03-4.011V81.014a1.509,1.509,0,0,0-3.018,0v18.03a1,1,0,0,1-1.012.992h-2.78a1.009,1.009,0,0,1-1-.859c0-.021-.006-.041-.01-.061L70.844,67.88a2.778,2.778,0,0,0-2.738-2.347H18.018a2.778,2.778,0,0,0-2.739,2.347L9.648,99.116c0,.02-.007.041-.01.061a1.009,1.009,0,0,1-1,.859H5.856a1,1,0,0,1-1.012-.992V58.45H81.28V74.99a1.509,1.509,0,1,0,3.018,0V58.45H99.156a3.871,3.871,0,0,0,3.873-3.86v-2.4a3.871,3.871,0,0,0-3.873-3.86ZM62.621,15.688,79.714,9.145v8.966h-16.2A24.288,24.288,0,0,0,62.621,15.688ZM64.5,22.915q-.09-.9-.247-1.785H80.5a2.238,2.238,0,0,0,2.236-2.236V8.008A2.257,2.257,0,0,0,79.7,5.92l-18.45,7.063a24.572,24.572,0,0,0-1.554-2.325L78.722,3.374a5.045,5.045,0,0,1,6.737,4.764V18.894A4.968,4.968,0,0,1,80.5,23.856H64.46a3.56,3.56,0,0,0,.036-.942ZM39.988,41.6A16.3,16.3,0,0,1,23.762,26.875H29.68a10.423,10.423,0,0,0,20.616,0h5.918A16.3,16.3,0,0,1,39.988,41.6ZM32.744,26.875H47.232a7.407,7.407,0,0,1-14.488,0Zm-19.505,0V34H8.693V26.875ZM4.844,55.432V41.076a.833.833,0,0,1,.223-.566L8.04,37.294a.863.863,0,0,1,.632-.275H13.26a.863.863,0,0,1,.632.275l2.973,3.216a.832.832,0,0,1,.223.566V55.432Zm95.166-.841a.849.849,0,0,1-.854.841H20.106V51.346h79.05a.849.849,0,0,1,.854.841Z" transform="translate(0 -0.043)" fill="#fff"/>
</svg>
