<?xml version="1.0" encoding="UTF-8"?>
<svg id="Layer_1" data-name="Layer 1" xmlns="http://www.w3.org/2000/svg" viewBox="0 0 14.48 19.97">
  <defs>
    <style>
      .cls-1 {
        fill: #fff;
      }
    </style>
  </defs>
  <path class="cls-1" d="m.34,19.97C.07,19.83,0,19.61,0,19.31,0,13.09,0,6.87,0,.65,0,.14.27,0,.65,0c1.34.01,2.68,0,4.01,0,.46,0,.65.21.65.65,0,6.22,0,12.43,0,18.65,0,.31-.11.52-.38.66H.34Z"/>
  <path class="cls-1" d="m9.5,19.97c-.27-.13-.35-.35-.35-.65,0-6.22,0-12.45,0-18.67,0-.48.16-.64.64-.64,1.35,0,2.7,0,4.05,0,.32,0,.5.11.58.36.03.09.04.19.04.28,0,6.22,0,12.45,0,18.67,0,.3-.12.51-.38.65h-4.6Z"/>
</svg>