<svg xmlns="http://www.w3.org/2000/svg" width="18.814" height="22.141" viewBox="0 0 18.814 22.141">
  <path id="Path_11193" data-name="Path 11193" d="M-408.147,831.883c-1.89.732-6.6,3.458-2.511,9.526q3.221,4.777,6.815,9.3c4.555,5.729,8.841,2.42,10.109.839a1.192,1.192,0,0,0,.006-1.5l-2.633-3.332a1.2,1.2,0,0,0-1.487-.328l-1.052.531a2.369,2.369,0,0,1-2.724-.385,18.2,18.2,0,0,1-4.118-5.617,2.37,2.37,0,0,1,.453-2.714l.823-.843a1.194,1.194,0,0,0,.135-1.516l-2.385-3.514a1.193,1.193,0,0,0-1.431-.445Z" transform="translate(412.28 -831.799)" fill="#cc671b" fill-rule="evenodd"/>
</svg>
