<svg xmlns="http://www.w3.org/2000/svg" width="24" height="24" viewBox="0 0 24 24">
  <g id="Group_15479" data-name="Group 15479" transform="translate(-1588 -2901)">
    <circle id="Ellipse_56" data-name="Ellipse 56" cx="12" cy="12" r="12" transform="translate(1588 2901)" fill="#fff"/>
    <g id="compass_425733" transform="translate(1594.728 2905.33)">
      <g id="Group_15477" data-name="Group 15477" transform="translate(0)">
        <path id="Path_58974" data-name="Path 58974" d="M90.554,14.693,88.9,10.646a9.305,9.305,0,0,0,1.036-.508.47.47,0,1,0-.465-.816,8.365,8.365,0,0,1-.926.455L86.376,4.46a1.715,1.715,0,0,0-.589-3V.47a.47.47,0,1,0-.939,0v.989a1.715,1.715,0,0,0-.589,3L82.088,9.777a8.358,8.358,0,0,1-.926-.455.47.47,0,1,0-.465.816,9.3,9.3,0,0,0,1.036.508l-1.652,4.046a.47.47,0,0,0,.869.355l1.668-4.084a9.341,9.341,0,0,0,2.23.388V11.5a.47.47,0,0,0,.939,0v-.151a9.344,9.344,0,0,0,2.23-.388l1.668,4.084a.47.47,0,1,0,.869-.355ZM85.317,2.332a.778.778,0,1,1-.778.778A.779.779,0,0,1,85.317,2.332Zm.47,8.079v-.334a.47.47,0,0,0-.939,0v.334a8.4,8.4,0,0,1-1.873-.321l2.153-5.273a1.688,1.688,0,0,0,.379,0L87.66,10.09A8.4,8.4,0,0,1,85.787,10.411Z" transform="translate(-80.046)" fill="#cc681b"/>
      </g>
    </g>
  </g>
</svg>
