<svg xmlns="http://www.w3.org/2000/svg" width="44.18" height="44.18" viewBox="0 0 44.18 44.18">
  <g id="Group_52" data-name="Group 52" transform="translate(0)">
    <g id="Group_50" data-name="Group 50">
      <path id="Path_209" data-name="Path 209" d="M249.17,271.26a22.043,22.043,0,0,1-11.125-3l-10.285,2.8,3.364-9.15a22.112,22.112,0,1,1,18.046,9.347Zm-10.722-5.839.487.3a19.467,19.467,0,1,0-5.284-4.812l.435.573-2.1,5.7Z" transform="translate(-227.08 -227.08)" fill="#cc681b"/>
    </g>
    <g id="Group_51" data-name="Group 51" transform="translate(11.324 10.566)">
      <path id="Path_210" data-name="Path 210" d="M370.107,357.72a1.848,1.848,0,0,1,1.5.143,3.378,3.378,0,0,1,.7.6l3.343,3.343a1.843,1.843,0,0,1,.549,1.295,1.967,1.967,0,0,1-.331,1.124,4.055,4.055,0,0,1-.466.528c-.539.542-1.083,1.078-1.619,1.622.152.328.35.633.523.95s.371.627.567.934a15.965,15.965,0,0,0,2.447,3.051,15.742,15.742,0,0,0,2.83,2.22c.605.4,1.24.744,1.876,1.087q.9-.906,1.809-1.809a1.988,1.988,0,0,1,.792-.507,1.845,1.845,0,0,1,1.429.067,3.054,3.054,0,0,1,.863.706q1.652,1.654,3.306,3.307a1.91,1.91,0,0,1,.549,1.293v.086a2.218,2.218,0,0,1-.216.816,5.1,5.1,0,0,1-1.019,1.153,2.232,2.232,0,0,1-.513.44,6,6,0,0,1-1.756.9,5.844,5.844,0,0,1-.908.222,3.326,3.326,0,0,1-1.023.043,8.83,8.83,0,0,1-1.283-.137c-.377-.047-.741-.163-1.114-.238-.367-.115-.744-.2-1.1-.35-.462-.136-.9-.348-1.342-.525-.4-.189-.794-.387-1.187-.587-.543-.313-1.094-.614-1.609-.973-.641-.4-1.23-.872-1.835-1.322-.664-.537-1.309-1.1-1.923-1.689-.576-.523-1.1-1.1-1.641-1.658a24.87,24.87,0,0,1-4.081-5.491,11.066,11.066,0,0,1-1.108-3.328,8.852,8.852,0,0,1-.073-2.506,6.1,6.1,0,0,1,1.156-3.124,1.367,1.367,0,0,1,.173-.27l.84-.843A2.081,2.081,0,0,1,370.107,357.72Z" transform="translate(-366.983 -357.621)" fill="#cc681b"/>
    </g>
  </g>
</svg>
