<svg id="Group_3" data-name="Group 3" xmlns="http://www.w3.org/2000/svg" xmlns:xlink="http://www.w3.org/1999/xlink" width="197.841" height="73.344" viewBox="0 0 197.841 73.344">
  <defs>
    <clipPath id="clip-path">
      <rect id="Rectangle_1" data-name="Rectangle 1" width="197.841" height="73.344" fill="none"/>
    </clipPath>
  </defs>
  <path id="Path_1" data-name="Path 1" d="M122.2,1.42l-8.565,1.713V61.284H122.2Z" transform="translate(-52.703 -0.659)" fill="#cc6800"/>
  <g id="Group_2" data-name="Group 2">
    <g id="Group_1" data-name="Group 1" clip-path="url(#clip-path)">
      <path id="Path_2" data-name="Path 2" d="M165.213,66.479c0-13.895-19.891-10.279-19.891-17.7,0-2.855,2.855-3.9,5.425-3.9,3.046,0,6.567.952,10.755,3.9l1.427-7.423a21.049,21.049,0,0,0-12.182-3.9c-8.09,0-13.8,4.188-13.8,11.23,0,14.181,19.415,9.9,19.415,17.988,0,2.665-2.094,4.569-6.377,4.569a20.031,20.031,0,0,1-10.279-3.426S136.852,71.9,135.329,74a26.078,26.078,0,0,0,14.942,4.569c9.137,0,14.942-4.664,14.942-12.087" transform="translate(-62.764 -17.369)" fill="#cc6800"/>
      <path id="Path_3" data-name="Path 3" d="M323.221,48.776c0-2.855,2.855-3.9,5.425-3.9,3.045,0,6.567.952,10.754,3.9l1.428-7.423a21.05,21.05,0,0,0-12.182-3.9c-8.09,0-13.8,4.188-13.8,11.231,0,14.181,19.415,9.9,19.415,17.987,0,2.665-2.094,4.569-6.377,4.569a20.031,20.031,0,0,1-10.279-3.426S314.75,71.9,313.228,74a26.078,26.078,0,0,0,14.942,4.569c9.137,0,14.943-4.664,14.943-12.087,0-13.895-19.891-10.279-19.891-17.7" transform="translate(-145.271 -17.369)" fill="#cc6800"/>
      <path id="Path_4" data-name="Path 4" d="M229.988,74V61.8c14.879-1.715,26.173-12.443,26.173-30.016,0-19.32-13.515-30.36-30.455-30.36S195.25,12.459,195.25,31.684c0,17.66,11.294,28.4,26.173,30.111V74ZM205.052,31.684c0-14.086,9.327-22.366,20.653-22.366s20.652,8.28,20.652,22.461c0,12.427-7.068,20.091-16.369,21.869V47.214l-8.565,1.713v4.722c-9.3-1.779-16.37-9.454-16.37-21.964" transform="translate(-90.555 -0.658)" fill="#cc6800"/>
      <path id="Path_5" data-name="Path 5" d="M25.269,73.344h8.565V46.556l-8.565,1.713v4.838H13.388L29.5,17.417,49.3,60.625h9.8L30.075,0H29.028L0,60.625H25.269Z" transform="translate(0)" fill="#cc6800"/>
    </g>
  </g>
</svg>
